<?xml version="1.0" standalone="no"?>
<!DOCTYPE svg PUBLIC "-//W3C//DTD SVG 20010904//EN"
 "http://www.w3.org/TR/2001/REC-SVG-20010904/DTD/svg10.dtd">
<svg version="1.0" xmlns="http://www.w3.org/2000/svg"
 width="512.000000pt" height="512.000000pt" viewBox="0 0 512.000000 512.000000"
 preserveAspectRatio="xMidYMid meet">

<g transform="translate(0.000000,512.000000) scale(0.100000,-0.100000)"
fill="#000000" stroke="none">
<path d="M390 5104 c-167 -44 -300 -165 -362 -330 l-23 -59 -3 -2129 c-3
-2331 -6 -2179 55 -2306 35 -72 151 -188 223 -223 127 -61 -25 -58 2306 -55
l2129 3 59 23 c167 63 288 197 331 368 14 54 15 300 13 2190 l-3 2129 -23 59
c-30 81 -73 144 -135 203 -63 59 -106 86 -183 116 l-59 22 -2135 2 c-1849 2
-2142 0 -2190 -13z m1202 -1471 l3 -238 273 -3 272 -2 0 -200 0 -200 -276 0
-275 0 3 -617 c3 -569 4 -621 21 -654 32 -65 62 -72 310 -77 l217 -4 0 -199 0
-199 -234 0 c-166 0 -259 4 -322 15 -170 30 -299 117 -363 243 -65 129 -64
121 -68 840 l-4 652 -150 0 -149 0 0 200 0 200 150 0 150 0 0 240 0 240 220 0
220 0 2 -237z m1378 -598 c135 -195 247 -355 250 -355 3 0 113 160 245 355
l239 355 264 0 264 0 -18 -27 c-9 -16 -172 -247 -361 -516 -189 -268 -346
-494 -349 -502 -4 -8 147 -229 380 -557 l387 -543 -253 -3 c-139 -1 -257 -1
-263 2 -6 2 -127 175 -270 385 -143 209 -262 381 -265 381 -3 -1 -124 -174
-269 -385 l-263 -385 -265 0 -265 0 19 28 c10 16 186 262 391 548 205 285 372
524 372 529 0 6 -145 212 -322 459 -178 248 -345 481 -371 518 l-48 68 263 0
263 -1 245 -354z"/>
</g>
</svg>
